:SAMPLES-PER-SECOND 30
:FULLY-SPECIFIED
:DEGREES
191
root  -11.1352 40.8065 4.95055 -177.061 -64.6248 175.549
RightUpLeg  -5.00534 -10.3402 -8.28605
RightLeg  9.73065 -0.641261 2.53442
RightFoot  -2.326 -0.240646 2.85004
RightToes  -2.9104e-010 0 -3.6325e-017
Spine  7.25123 -1.49005 4.58724
Spine1  17.5138 -0.587508 -2.09404
HEad  -2.74782 10.8993 -0.341006
LeftShoulder1  8.27235 -12.8369 -44.0739
LeftArm  -10.0304 11.8462 -27.9156
LeftForeArm  38.5183 -33.8038 -5.30926
LeftHand  -0.244104 0.0205437 5.32207
RightShoulder  4.98932 9.08317 33.6937
RightArm  -16.1182 -19.7097 19.3947
RightForeArm  -2.40547 14.026 4.89209
RightHand  -0.983188 2.22759 -15.1162
LeftUpLeg  -1.69831 7.09219 7.66064
LeftLeg  3.16482 14.8983 -2.56604
LeftFoot  2.97182 0.453785 -3.75775
LeftToes  -1.62803e-010 -2.57217e-011 -2.5681e-011
192
root  -11.1293 40.8072 4.79359 -177.392 -64.4878 175.742
RightUpLeg  -4.76899 -10.2188 -8.02464
RightLeg  9.76954 -0.665623 2.59023
RightFoot  -2.48609 -0.220874 2.63256
RightToes  -2.9104e-010 0 -3.6325e-017
Spine  7.06925 -1.65909 4.2504
Spine1  17.3472 -0.973848 -1.57014
HEad  -3.43256 11.6507 -1.24471
LeftShoulder1  8.28254 -12.7625 -44.3425
LeftArm  -9.59258 12.0945 -28.1176
LeftForeArm  38.5806 -33.5155 -5.23571
LeftHand  -0.244104 0.0205437 5.32207
RightShoulder  4.87828 8.88659 33.4284
RightArm  -15.6726 -20.0334 19.902
RightForeArm  -4.23507 15.9928 4.98712
RightHand  -1.04634 2.42523 -15.6718
LeftUpLeg  -1.32515 7.21005 7.99151
LeftLeg  3.02248 14.8955 -2.55226
LeftFoot  2.97974 0.475832 -3.93144
LeftToes  -1.62803e-010 -2.57217e-011 -2.5681e-011
193
root  -11.1231 40.8071 4.66776 -177.681 -64.5904 175.944
RightUpLeg  -4.51313 -10.1667 -7.8353
RightLeg  9.73113 -0.887084 2.68695
RightFoot  -2.64267 -0.208427 2.50223
RightToes  -2.9104e-010 0 -3.6325e-017
Spine  6.89239 -1.76478 4.00326
Spine1  17.1602 -1.28816 -1.03325
HEad  -4.23759 12.2124 -2.37235
LeftShoulder1  8.32052 -12.7279 -44.6544
LeftArm  -9.14733 12.2462 -28.3505
LeftForeArm  38.8363 -33.181 -5.14106
LeftHand  -0.244104 0.0205437 5.32207
RightShoulder  4.84517 8.81313 33.3945
RightArm  -15.012 -20.0521 20.5752
RightForeArm  -4.81945 17.5834 5.01664
RightHand  -1.15012 2.95747 -16.1388
LeftUpLeg  -1.19301 7.26314 8.23482
LeftLeg  3.09766 14.7004 -2.41408
LeftFoot  2.92499 0.498334 -4.12379
LeftToes  -1.62803e-010 -2.57217e-011 -2.5681e-011
194
root  -11.123 40.8044 4.57254 -177.904 -64.9269 176.139
RightUpLeg  -4.26339 -10.1368 -7.70473
RightLeg  9.65138 -1.31007 2.77724
RightFoot  -2.80116 -0.203891 2.47738
RightToes  -2.9104e-010 0 -3.6325e-017
Spine  6.70031 -1.8054 3.92825
Spine1  16.9252 -1.47295 -0.636385
HEad  -5.02913 12.6647 -3.48772
LeftShoulder1  8.37638 -12.7489 -44.9071
LeftArm  -8.74171 12.4058 -28.6069
LeftForeArm  39.107 -32.9225 -5.06447
LeftHand  -0.244104 0.0205437 5.32207
RightShoulder  4.93294 8.89458 33.8398
RightArm  -14.5886 -19.7622 21.2527
RightForeArm  -4.51892 18.6343 4.99297
RightHand  -1.23725 3.52244 -16.2766
LeftUpLeg  -1.27181 7.25947 8.38162
LeftLeg  3.33496 14.3254 -2.18316
LeftFoot  2.80032 0.512479 -4.26823
LeftToes  -1.62803e-010 -2.57217e-011 -2.5681e-011
195
root  -11.1292 40.7948 4.50432 -177.98 -65.513 176.217
RightUpLeg  -4.06734 -10.1572 -7.66039
RightLeg  9.68275 -1.87312 2.80744
RightFoot  -3.01403 -0.20512 2.55153
RightToes  -2.9104e-010 0 -3.6325e-017
Spine  6.48822 -1.75678 3.98424
Spine1  16.7059 -1.50636 -0.370401
HEad  -5.80863 12.7787 -4.5575
LeftShoulder1  8.43104 -12.7918 -45.0887
LeftArm  -8.29155 12.5691 -28.8249
LeftForeArm  39.2121 -32.9566 -5.06711
LeftHand  -0.244104 0.0205437 5.32207
RightShoulder  5.08661 9.03316 34.618
RightArm  -14.2635 -19.2856 22.2117
RightForeArm  -4.86088 19.7155 5.00422
RightHand  -1.374 4.17919 -16.826
LeftUpLeg  -1.51931 7.25044 8.42199
LeftLeg  3.69345 13.724 -1.94726
LeftFoot  2.63013 0.509998 -4.292
LeftToes  -1.62803e-010 -2.57217e-011 -2.5681e-011
196
root  -11.1351 40.7784 4.46578 -177.972 -66.3523 176.19
RightUpLeg  -3.90692 -10.3073 -7.71546
RightLeg  9.88816 -2.51442 2.79922
RightFoot  -3.31341 -0.207652 2.64923
RightToes  -2.9104e-010 0 -3.6325e-017
Spine  6.35112 -1.61079 4.21628
Spine1  16.4982 -1.37345 -0.243334
HEad  -6.49159 12.3618 -5.6781
LeftShoulder1  8.49141 -12.8445 -45.2721
LeftArm  -7.73085 12.6235 -28.9462
LeftForeArm  39.1567 -33.1968 -5.1277
LeftHand  -0.244104 0.0205437 5.32207
RightShoulder  5.20689 9.13275 35.2406
RightArm  -13.8832 -18.8211 24.0891
RightForeArm  -6.93753 21.6776 5.1817
RightHand  -1.7397 5.32429 -18.9385
LeftUpLeg  -1.91093 7.29198 8.37973
LeftLeg  4.20346 12.8443 -1.72116
LeftFoot  2.43865 0.50132 -4.27097
LeftToes  -1.62803e-010 -2.57217e-011 -2.5681e-011
197
root  -11.1362 40.7597 4.4622 -178.104 -67.412 176.231
RightUpLeg  -3.65998 -10.5542 -7.81997
RightLeg  10.1279 -3.26814 2.79298
RightFoot  -3.62343 -0.20853 2.72292
RightToes  -2.9104e-010 0 -3.6325e-017
Spine  6.38875 -1.40992 4.77463
Spine1  16.3194 -1.06039 -0.41123
HEad  -6.9355 11.5346 -6.75524
LeftShoulder1  8.56866 -12.9268 -45.4625
LeftArm  -7.2385 12.5141 -28.9971
LeftForeArm  39.1811 -33.4287 -5.18232
LeftHand  -0.244104 0.0205437 5.32207
RightShoulder  5.29703 9.24831 35.5675
RightArm  -13.7479 -18.1554 27.0642
RightForeArm  -10.1087 24.8471 5.80508
RightHand  -2.33927 6.88309 -22.1669
LeftUpLeg  -2.36932 7.41927 8.31969
LeftLeg  4.84941 11.6693 -1.486
LeftFoot  2.23071 0.496204 -4.28343
LeftToes  -1.62803e-010 -2.57217e-011 -2.5681e-011
198
root  -11.1281 40.7415 4.49261 -178.443 -68.6346 176.392
RightUpLeg  -3.27573 -10.7702 -7.93062
RightLeg  10.2823 -4.20163 2.76925
RightFoot  -3.83912 -0.209435 2.79588
RightToes  -2.9104e-010 0 -3.6325e-017
Spine  6.57147 -1.18634 5.60084
Spine1  16.3261 -0.591271 -0.907562
HEad  -7.19955 10.4506 -7.58311
LeftShoulder1  8.64393 -13.0367 -45.561
LeftArm  -7.05208 12.2852 -29.0547
LeftForeArm  39.4781 -33.7139 -5.23567
LeftHand  -0.244104 0.0205437 5.32207
RightShoulder  5.46178 9.51548 35.9702
RightArm  -13.4879 -16.5027 30.5371
RightForeArm  -13.2042 28.9632 6.96111
RightHand  -2.82772 8.03864 -24.4344
LeftUpLeg  -2.82376 7.61846 8.25869
LeftLeg  5.54733 10.2514 -1.26938
LeftFoot  2.02061 0.486937 -4.26129
LeftToes  -1.62803e-010 -2.57217e-011 -2.5681e-011
199
root  -11.1018 40.7201 4.55453 -178.79 -69.9525 176.529
RightUpLeg  -2.9066 -10.9596 -8.07082
RightLeg  10.4604 -5.24081 2.69836
RightFoot  -3.97082 -0.212014 2.87875
RightToes  -2.9104e-010 0 -3.6325e-017
Spine  6.83633 -0.88451 6.42684
Spine1  16.5944 0.00989214 -1.49756
HEad  -7.41408 8.98652 -8.09689
LeftShoulder1  8.70499 -13.1599 -45.5433
LeftArm  -7.06519 11.9184 -29.1172
LeftForeArm  39.8923 -34.174 -5.32591
LeftHand  -0.244104 0.0205437 5.32207
RightShoulder  5.74925 9.96799 36.6756
RightArm  -12.1524 -13.077 33.7737
RightForeArm  -15.4121 33.5503 8.28978
RightHand  -2.85566 8.11072 -24.5085
LeftUpLeg  -3.34585 7.84982 8.12731
LeftLeg  6.2992 8.6988 -1.07737
LeftFoot  1.83512 0.470261 -4.16788
LeftToes  -1.62803e-010 -2.57217e-011 -2.5681e-011
200
root  -11.0485 40.6888 4.65234 -179.039 -71.3289 176.617
RightUpLeg  -2.73373 -11.3044 -8.26912
RightLeg  10.8387 -6.18949 2.61071
RightFoot  -4.11083 -0.216344 2.98666
RightToes  -2.9104e-010 0 -3.6325e-017
Spine  7.25347 -0.425084 7.20358
Spine1  16.9084 0.781257 -2.03228
HEad  -7.40465 6.93406 -8.31066
LeftShoulder1  8.78288 -13.3138 -45.5301
LeftArm  -6.92475 11.2918 -29.1128
LeftForeArm  40.1007 -34.5767 -5.41392
LeftHand  -0.244104 0.0205437 5.32207
RightShoulder  6.08989 10.5112 37.429
RightArm  -10.0562 -7.55916 36.4742
RightForeArm  -15.3969 37.8022 9.56243
RightHand  -2.56242 7.44277 -23.188
LeftUpLeg  -4.09234 8.09715 7.87811
LeftLeg  7.22334 7.07969 -0.853497
LeftFoot  1.67343 0.459783 -4.11987
LeftToes  -1.62803e-010 -2.57217e-011 -2.5681e-011
